<svg width="435" height="434" viewBox="0 0 435 434" fill="none" xmlns="http://www.w3.org/2000/svg">
<path d="M217.594 433.221C135.613 433.221 64.1909 387.96 27.216 321.125C-54.3573 173.762 58.1576 -5.12866 222.405 0.112519C326.889 2.22524 415.148 78.974 431.984 181.035C454.079 312.755 351.96 433.221 217.594 433.221Z" fill="url(#paint0_radial_60_5021)"/>
<g opacity="0.75">
<path d="M303.896 251.649C294.887 249.414 292.4 260.587 297.496 263.106C302.592 265.666 315.392 273.304 317.961 268.185C320.529 263.106 314.129 254.208 303.896 251.649Z" fill="#056DB1"/>
<path d="M393.378 157.389C384.654 159.38 374.218 163.768 383.146 170.146C392.114 176.525 406.138 173.965 407.442 166.327C408.706 158.648 410.011 153.57 393.378 157.389Z" fill="#056DB1"/>
<path d="M218.246 362.485C199.494 351.272 172.221 347.209 169.653 358.666C167.085 370.124 184.981 387.96 206.71 385.4C228.479 382.881 231.047 370.124 218.246 362.485Z" fill="#056DB1"/>
<path d="M279.396 424.324C262.478 429.321 244.704 432.328 226.318 433.018C230.517 406.487 255.833 414.857 269.368 418.514C273.322 419.611 276.624 421.764 279.396 424.324Z" fill="#056DB1"/>
<path d="M99.3714 361.226C107.647 364.842 113.436 347.209 101.94 331.932C90.4436 316.656 85.307 297.519 71.2427 293.7C57.1783 289.881 49.5142 339.57 99.3714 361.226Z" fill="#056DB1"/>
<path d="M43.1144 298.779C38.5893 299.591 36.7141 308.976 46.9464 310.236C57.1787 311.536 57.1787 296.259 43.1144 298.779Z" fill="#056DB1"/>
<path d="M156.893 246.57C147.884 245.758 138.997 250.389 140.26 260.587C141.524 270.785 155.588 260.587 161.989 260.587C168.389 260.587 170.957 247.83 156.893 246.57Z" fill="#056DB1"/>
<path d="M245.111 128.095C237.366 124.438 236.143 140.853 242.543 143.372C248.943 145.931 266.84 138.252 245.111 128.095Z" fill="#056DB1"/>
</g>
<path d="M163.293 210.898C119.837 218.536 113.436 219.796 73.8115 252.949C47.5988 274.849 20.2446 267.779 4.75345 260.466C1.85904 246.327 0.309814 231.66 0.309814 216.627C0.309814 155.033 26.1149 99.4112 67.5335 60.0007C76.0536 65.0388 84.8591 71.8645 91.7078 80.9655C110.868 106.44 107.036 116.638 163.293 145.932C219.51 175.225 206.75 203.26 163.293 210.898Z" fill="url(#paint1_linear_60_5021)"/>
<path d="M414.006 123.829C373.892 115.459 346.538 160.68 319.224 157.389C287.264 153.57 296.232 106.44 269.367 56.7499C255.914 31.8848 254.976 14.658 257.382 3.68805C326.807 16.4457 384.613 62.113 414.006 123.829Z" fill="url(#paint2_linear_60_5021)"/>
<path d="M434.919 216.626C434.919 300.689 386.896 373.537 316.697 409.453C300.676 384.222 326.644 365.492 357.586 345.95C395.947 321.735 360.154 311.537 366.513 272.045C372.914 232.553 348.617 229.994 360.113 196.881C368.307 173.234 411.03 195.662 434.797 210.451C434.878 212.482 434.919 214.554 434.919 216.626Z" fill="url(#paint3_linear_60_5021)"/>
<path d="M231.047 282.243C207.81 289.434 195.254 261.847 165.861 268.226C136.469 274.605 112.172 326.813 151.797 325.554C191.422 324.294 201.654 319.175 231.047 339.571C260.439 359.967 294.968 345.95 305.2 314.096C315.392 282.243 308.992 258.028 231.047 282.243Z" fill="url(#paint4_linear_60_5021)"/>
<path d="M279.599 186.683C267.369 190.583 264.271 196.881 268.103 204.519C271.935 212.157 287.263 210.898 294.927 222.355C302.591 233.813 321.792 247.83 326.888 222.355C332.024 196.881 307.728 177.744 279.599 186.683Z" fill="url(#paint5_linear_60_5021)"/>
<path opacity="0.5" d="M234.879 120.416C232.596 137.399 216.982 120.416 191.422 115.338C165.861 110.259 155.629 94.9419 167.125 84.7439C178.621 74.5459 193.949 66.9076 209.318 75.8055C224.646 84.7439 237.406 101.321 234.879 120.416Z" fill="#056DB1"/>
<path d="M208.014 19.7775C176.053 19.7775 160.725 37.6138 131.332 47.8118C113.803 53.8656 99.9423 46.8367 91.5852 40.1735C127.133 14.902 170.631 0.0317383 217.635 0.0317383C219.265 0.0317383 220.855 0.0316936 222.445 0.112952C224.687 9.29518 223.872 19.7775 208.014 19.7775Z" fill="url(#paint6_linear_60_5021)"/>
<path opacity="0.45" d="M424.564 282.893C406.831 337.945 367.573 383.41 316.697 409.453C304.834 415.507 292.359 420.504 279.396 424.364C262.478 429.361 244.704 432.368 226.318 433.059C223.424 433.18 220.529 433.221 217.594 433.221C135.613 433.221 64.1906 387.96 27.2156 321.125C16.8609 302.435 9.19697 282.039 4.75345 260.465C1.85904 246.326 0.309814 231.659 0.309814 216.626C0.309814 190.461 4.95721 165.393 13.4774 142.193C38.0594 215.367 94.3169 309.789 222.201 327.3C247.15 330.713 270.468 331.16 292.237 329.291C345.641 324.619 389.587 306.011 424.564 282.893Z" fill="url(#paint7_linear_60_5021)"/>
<path opacity="0.45" d="M434.919 216.626C434.919 239.744 431.291 262.009 424.564 282.893C406.831 337.945 367.573 383.409 316.697 409.453C304.834 415.507 292.359 420.504 279.396 424.364C262.478 429.361 244.704 432.368 226.318 433.058C223.424 433.18 220.529 433.221 217.594 433.221C135.613 433.221 64.1906 387.96 27.2156 321.125C64.8021 336.523 109.563 347.046 162.641 349.118C214.129 351.15 256.852 343.227 292.237 329.251C368.307 299.266 410.704 241.247 433.696 193.467C434.307 199.034 434.674 204.722 434.837 210.41C434.878 212.482 434.919 214.554 434.919 216.626Z" fill="url(#paint8_linear_60_5021)"/>
<path d="M432.025 181.156C432.025 181.156 401.083 68.2069 258.809 31.031C173.526 8.72555 114.333 28.8371 80.6196 48.5017C188.283 -39.0951 352.938 -4.31647 414.006 123.828C428.193 153.528 431.006 177.012 432.025 181.156Z" fill="url(#paint9_linear_60_5021)"/>
<defs>
<radialGradient id="paint0_radial_60_5021" cx="0" cy="0" r="1" gradientUnits="userSpaceOnUse" gradientTransform="translate(228.383 131.866) scale(263.734 262.849)">
<stop stop-color="#00B3DC"/>
<stop offset="1" stop-color="#056DB0"/>
</radialGradient>
<linearGradient id="paint1_linear_60_5021" x1="74.8118" y1="-117.297" x2="124.331" y2="505.686" gradientUnits="userSpaceOnUse">
<stop stop-color="#F2F236"/>
<stop offset="1" stop-color="#F2F236" stop-opacity="0"/>
</linearGradient>
<linearGradient id="paint2_linear_60_5021" x1="318.666" y1="-136.681" x2="368.186" y2="486.303" gradientUnits="userSpaceOnUse">
<stop stop-color="#F2F236"/>
<stop offset="1" stop-color="#F2F236" stop-opacity="0"/>
</linearGradient>
<linearGradient id="paint3_linear_60_5021" x1="338.028" y1="-138.22" x2="387.548" y2="484.763" gradientUnits="userSpaceOnUse">
<stop stop-color="#F2F236"/>
<stop offset="1" stop-color="#F2F236" stop-opacity="0"/>
</linearGradient>
<linearGradient id="paint4_linear_60_5021" x1="185.757" y1="-126.116" x2="235.276" y2="496.869" gradientUnits="userSpaceOnUse">
<stop stop-color="#F2F236"/>
<stop offset="1" stop-color="#F2F236" stop-opacity="0"/>
</linearGradient>
<linearGradient id="paint5_linear_60_5021" x1="269.903" y1="-132.805" x2="319.422" y2="490.18" gradientUnits="userSpaceOnUse">
<stop stop-color="#F2F236"/>
<stop offset="1" stop-color="#F2F236" stop-opacity="0"/>
</linearGradient>
<linearGradient id="paint6_linear_60_5021" x1="145.775" y1="-122.938" x2="195.295" y2="500.046" gradientUnits="userSpaceOnUse">
<stop stop-color="#F2F236"/>
<stop offset="1" stop-color="#F2F236" stop-opacity="0"/>
</linearGradient>
<linearGradient id="paint7_linear_60_5021" x1="184.562" y1="497.02" x2="216.941" y2="200.805" gradientUnits="userSpaceOnUse">
<stop stop-color="#00ACD8"/>
<stop offset="1" stop-color="#0983BD"/>
</linearGradient>
<linearGradient id="paint8_linear_60_5021" x1="206.477" y1="484.287" x2="242.666" y2="174.691" gradientUnits="userSpaceOnUse">
<stop stop-color="#056EB1"/>
<stop offset="1" stop-color="#00A9D7" stop-opacity="0.3"/>
</linearGradient>
<linearGradient id="paint9_linear_60_5021" x1="375.421" y1="-119.256" x2="239.373" y2="149.929" gradientUnits="userSpaceOnUse">
<stop stop-color="#E2FFB5"/>
<stop offset="1" stop-color="#FFFFB3" stop-opacity="0"/>
</linearGradient>
</defs>
</svg>
