<svg width="633" height="632" viewBox="0 0 633 632" fill="none" xmlns="http://www.w3.org/2000/svg">
<g filter="url(#filter0_d_60_5021)">
<path d="M316.594 532.221C234.613 532.221 163.191 486.96 126.216 420.125C44.6427 272.762 157.158 93.8713 321.405 99.1125C425.889 101.225 514.148 177.974 530.984 280.035C553.079 411.755 450.96 532.221 316.594 532.221Z" fill="url(#paint0_radial_60_5021)"/>
<g opacity="0.75">
<path d="M402.896 350.649C393.887 348.414 391.4 359.587 396.496 362.106C401.592 364.666 414.392 372.304 416.961 367.185C419.529 362.106 413.129 353.208 402.896 350.649Z" fill="#056DB1"/>
<path d="M492.378 256.389C483.654 258.38 473.218 262.768 482.146 269.146C491.114 275.525 505.138 272.965 506.442 265.327C507.706 257.648 509.011 252.57 492.378 256.389Z" fill="#056DB1"/>
<path d="M317.246 461.485C298.494 450.272 271.221 446.209 268.653 457.666C266.085 469.124 283.981 486.96 305.71 484.4C327.479 481.881 330.047 469.124 317.246 461.485Z" fill="#056DB1"/>
<path d="M378.396 523.324C361.478 528.321 343.704 531.328 325.318 532.018C329.517 505.487 354.833 513.857 368.368 517.514C372.322 518.611 375.624 520.764 378.396 523.324Z" fill="#056DB1"/>
<path d="M198.371 460.226C206.647 463.842 212.436 446.209 200.94 430.932C189.444 415.656 184.307 396.519 170.243 392.7C156.178 388.881 148.514 438.57 198.371 460.226Z" fill="#056DB1"/>
<path d="M142.114 397.779C137.589 398.591 135.714 407.976 145.946 409.236C156.179 410.536 156.179 395.259 142.114 397.779Z" fill="#056DB1"/>
<path d="M255.893 345.57C246.884 344.758 237.997 349.389 239.26 359.587C240.524 369.785 254.588 359.587 260.989 359.587C267.389 359.587 269.957 346.83 255.893 345.57Z" fill="#056DB1"/>
<path d="M344.111 227.095C336.366 223.438 335.143 239.853 341.543 242.372C347.943 244.931 365.84 237.252 344.111 227.095Z" fill="#056DB1"/>
</g>
<path d="M262.293 309.898C218.837 317.536 212.436 318.796 172.811 351.949C146.599 373.849 119.245 366.779 103.753 359.466C100.859 345.327 99.3098 330.66 99.3098 315.627C99.3098 254.033 125.115 198.411 166.533 159.001C175.054 164.039 183.859 170.865 190.708 179.965C209.868 205.44 206.036 215.638 262.293 244.932C318.51 274.225 305.75 302.26 262.293 309.898Z" fill="url(#paint1_linear_60_5021)"/>
<path d="M513.006 222.829C472.892 214.459 445.538 259.68 418.224 256.389C386.264 252.57 395.232 205.44 368.367 155.75C354.914 130.885 353.976 113.658 356.382 102.688C425.807 115.446 483.613 161.113 513.006 222.829Z" fill="url(#paint2_linear_60_5021)"/>
<path d="M533.919 315.626C533.919 399.689 485.896 472.537 415.697 508.453C399.676 483.222 425.644 464.492 456.586 444.95C494.947 420.735 459.154 410.537 465.513 371.045C471.914 331.553 447.617 328.994 459.113 295.881C467.307 272.234 510.03 294.662 533.797 309.451C533.878 311.482 533.919 313.554 533.919 315.626Z" fill="url(#paint3_linear_60_5021)"/>
<path d="M330.047 381.243C306.81 388.434 294.254 360.847 264.861 367.226C235.469 373.605 211.172 425.813 250.797 424.554C290.422 423.294 300.654 418.175 330.047 438.571C359.439 458.967 393.968 444.95 404.2 413.096C414.392 381.243 407.992 357.028 330.047 381.243Z" fill="url(#paint4_linear_60_5021)"/>
<path d="M378.599 285.683C366.369 289.583 363.271 295.881 367.103 303.519C370.935 311.157 386.263 309.898 393.927 321.355C401.591 332.813 420.792 346.83 425.888 321.355C431.024 295.881 406.728 276.744 378.599 285.683Z" fill="url(#paint5_linear_60_5021)"/>
<path opacity="0.5" d="M333.879 219.416C331.596 236.399 315.982 219.416 290.422 214.338C264.861 209.259 254.629 193.942 266.125 183.744C277.621 173.546 292.949 165.908 308.318 174.805C323.646 183.744 336.406 200.321 333.879 219.416Z" fill="#056DB1"/>
<path d="M307.014 118.778C275.053 118.778 259.725 136.614 230.332 146.812C212.803 152.866 198.942 145.837 190.585 139.173C226.133 113.902 269.631 99.0317 316.635 99.0317C318.265 99.0317 319.855 99.0317 321.445 99.113C323.687 108.295 322.872 118.778 307.014 118.778Z" fill="url(#paint6_linear_60_5021)"/>
<path opacity="0.45" d="M523.564 381.893C505.831 436.945 466.573 482.41 415.697 508.453C403.834 514.507 391.359 519.504 378.396 523.364C361.478 528.361 343.704 531.368 325.318 532.059C322.424 532.18 319.529 532.221 316.594 532.221C234.613 532.221 163.191 486.96 126.216 420.125C115.861 401.435 108.197 381.039 103.753 359.465C100.859 345.326 99.3098 330.659 99.3098 315.626C99.3098 289.461 103.957 264.393 112.477 241.193C137.059 314.367 193.317 408.789 321.201 426.3C346.15 429.713 369.468 430.16 391.237 428.291C444.641 423.619 488.587 405.011 523.564 381.893Z" fill="url(#paint7_linear_60_5021)"/>
<path opacity="0.45" d="M533.919 315.626C533.919 338.744 530.291 361.009 523.564 381.893C505.831 436.945 466.573 482.409 415.697 508.453C403.834 514.507 391.359 519.504 378.396 523.364C361.478 528.361 343.704 531.368 325.318 532.058C322.424 532.18 319.529 532.221 316.594 532.221C234.613 532.221 163.191 486.96 126.216 420.125C163.802 435.523 208.563 446.046 261.641 448.118C313.129 450.15 355.852 442.227 391.237 428.251C467.307 398.266 509.704 340.247 532.696 292.467C533.307 298.034 533.674 303.722 533.837 309.41C533.878 311.482 533.919 313.554 533.919 315.626Z" fill="url(#paint8_linear_60_5021)"/>
<path d="M531.025 280.156C531.025 280.156 500.083 167.207 357.809 130.031C272.526 107.726 213.333 127.837 179.62 147.502C287.283 59.9049 451.938 94.6835 513.006 222.828C527.193 252.528 530.006 276.012 531.025 280.156Z" fill="url(#paint9_linear_60_5021)"/>
</g>
<defs>
<filter id="filter0_d_60_5021" x="0" y="0" width="633" height="631.221" filterUnits="userSpaceOnUse" color-interpolation-filters="sRGB">
<feFlood flood-opacity="0" result="BackgroundImageFix"/>
<feColorMatrix in="SourceAlpha" type="matrix" values="0 0 0 0 0 0 0 0 0 0 0 0 0 0 0 0 0 0 127 0" result="hardAlpha"/>
<feOffset/>
<feGaussianBlur stdDeviation="49.5"/>
<feComposite in2="hardAlpha" operator="out"/>
<feColorMatrix type="matrix" values="0 0 0 0 1 0 0 0 0 1 0 0 0 0 1 0 0 0 0.5 0"/>
<feBlend mode="normal" in2="BackgroundImageFix" result="effect1_dropShadow_60_5021"/>
<feBlend mode="normal" in="SourceGraphic" in2="effect1_dropShadow_60_5021" result="shape"/>
</filter>
<radialGradient id="paint0_radial_60_5021" cx="0" cy="0" r="1" gradientUnits="userSpaceOnUse" gradientTransform="translate(327.383 230.866) scale(263.734 262.849)">
<stop stop-color="#00B3DC"/>
<stop offset="1" stop-color="#056DB0"/>
</radialGradient>
<linearGradient id="paint1_linear_60_5021" x1="173.812" y1="-18.2967" x2="223.331" y2="604.686" gradientUnits="userSpaceOnUse">
<stop stop-color="#F2F236"/>
<stop offset="1" stop-color="#F2F236" stop-opacity="0"/>
</linearGradient>
<linearGradient id="paint2_linear_60_5021" x1="417.666" y1="-37.6806" x2="467.186" y2="585.303" gradientUnits="userSpaceOnUse">
<stop stop-color="#F2F236"/>
<stop offset="1" stop-color="#F2F236" stop-opacity="0"/>
</linearGradient>
<linearGradient id="paint3_linear_60_5021" x1="437.028" y1="-39.2198" x2="486.548" y2="583.763" gradientUnits="userSpaceOnUse">
<stop stop-color="#F2F236"/>
<stop offset="1" stop-color="#F2F236" stop-opacity="0"/>
</linearGradient>
<linearGradient id="paint4_linear_60_5021" x1="284.757" y1="-27.1158" x2="334.276" y2="595.869" gradientUnits="userSpaceOnUse">
<stop stop-color="#F2F236"/>
<stop offset="1" stop-color="#F2F236" stop-opacity="0"/>
</linearGradient>
<linearGradient id="paint5_linear_60_5021" x1="368.903" y1="-33.8052" x2="418.422" y2="589.18" gradientUnits="userSpaceOnUse">
<stop stop-color="#F2F236"/>
<stop offset="1" stop-color="#F2F236" stop-opacity="0"/>
</linearGradient>
<linearGradient id="paint6_linear_60_5021" x1="244.775" y1="-23.9381" x2="294.295" y2="599.046" gradientUnits="userSpaceOnUse">
<stop stop-color="#F2F236"/>
<stop offset="1" stop-color="#F2F236" stop-opacity="0"/>
</linearGradient>
<linearGradient id="paint7_linear_60_5021" x1="283.562" y1="596.02" x2="315.941" y2="299.805" gradientUnits="userSpaceOnUse">
<stop stop-color="#00ACD8"/>
<stop offset="1" stop-color="#0983BD"/>
</linearGradient>
<linearGradient id="paint8_linear_60_5021" x1="305.477" y1="583.287" x2="341.666" y2="273.691" gradientUnits="userSpaceOnUse">
<stop stop-color="#056EB1"/>
<stop offset="1" stop-color="#00A9D7" stop-opacity="0.3"/>
</linearGradient>
<linearGradient id="paint9_linear_60_5021" x1="474.421" y1="-20.2556" x2="338.373" y2="248.929" gradientUnits="userSpaceOnUse">
<stop stop-color="#E2FFB5"/>
<stop offset="1" stop-color="#FFFFB3" stop-opacity="0"/>
</linearGradient>
</defs>
</svg>
